<?xml version="1.0" encoding="utf-8"?>
<!-- Generator: Adobe Illustrator 19.0.0, SVG Export Plug-In . SVG Version: 6.00 Build 0)  -->
<svg version="1.1" id="Layer_1" xmlns="http://www.w3.org/2000/svg" xmlns:xlink="http://www.w3.org/1999/xlink" x="0px" y="0px"
	 viewBox="0 0 66 66" style="enable-background:new 0 0 66 66;" xml:space="preserve">
<style type="text/css">
	.st0{fill:#FAAD21;}
</style>
<g id="XMLID_20_">
	<path id="XMLID_824_" class="st0" d="M50.9,60.5c0.2-0.1,0.6-0.1,0.6-0.9c0,0-0.4-2.2-0.3-3.1c0.4-0.7,0.6-1.6,0.6-2.5c0,0,0,0,0,0
		c0,0,0,0,0,0c0-0.1,0-0.2,0-0.2c-0.1-2.6-2-4.6-4.5-5c-0.6-1.5-2.3-6.8-2.3-6.8c0.1-0.3,0.2-0.4,0.4-0.4h5.1c0,0,0,0,0,0V40
		c0,0,0,0,0,0h-5.7c-0.4-0.3-0.6-0.8-0.6-0.8c0,0-6.1-19.7-7.2-23.3c1.4-1.2,2.3-3,2.3-5c0-3.2-2.3-5.9-5.4-6.4V1.8c0,0,0,0,0,0
		h-2.3c0,0,0,0,0,0v2.6c-3.1,0.5-5.4,3.2-5.4,6.4c0,2.1,1,3.9,2.5,5.1l-6.1,18.2c-2.5,0.5-4.5,2.7-4.5,5.4c0,0.1,0,0.2,0,0.3h-3
		c0,0,0,0,0,0v1.4c0,0,0,0,0,0h3.2c0.3,0.8,0.7,1.5,1.3,2.1c0,0.1-0.1,0.2-0.1,0.2c-0.1,0.5-0.3,0.9-0.4,1.4c-0.1,0.3-0.1,0.5,0,0.9
		c0,0.1,0,0.3,0,0.3v0c0,0,0,0,0,0c0,0,0,0,0,0l-0.2,0.8c0.2,0.2,0.5,0.5,0.7,0.7c0,0.1-0.1,0.2-0.1,0.3c-0.2,0.7-0.4,1.3-0.6,2
		c-0.2,0.5-0.3,1.1-0.6,1.6l-0.4,0.9l0.9-0.2c0.3-0.7,0.7-1.3,1-2c0.2-0.5,0.4-0.9,0.7-1.4c0.1-0.1,0.2-0.2,0.3-0.3
		c0.2,0.1,0.3,0.2,0.5,0.4c0.5-1.1,1.1-2.2,1.6-3.3c0.6,0,1.2,0,1.8,0c0.1-0.3,0.2-0.6,0.3-0.8c0.4-0.1,0.8-0.3,1.1-0.4c0,0,0,0,0,0
		c1.3-0.6,2.3-1.8,2.8-3.2h4.6c2.5,0,5.2,0,6.2,0c0.4,0,0.9-0.1,1.2,0.3l2.5,7.9c-1.4,1-2.3,2.6-2.3,4.4c0,3,2.4,5.4,5.4,5.4
		c0,0,0.1,0,0.1,0c0,0,0,0.1,0.1,0.1c0,0,0.8,1.7,0.8,1.7c0.1,0.3,0.8,0.2,0.8,0.2c1.5-0.5,2.7,3.2,3,3.4c0.1-0.2,0.2-1.1,0.1-1.5
		c-0.1-0.8-0.3-1.5-0.7-2.3C50.5,60.8,50.6,60.6,50.9,60.5z M28.1,10.9c0-2.5,2.1-4.6,4.6-4.6s4.6,2.1,4.6,4.6
		c0,2.5-2.1,4.6-4.6,4.6c-0.2,0-0.3,0-0.5,0C29.9,15.2,28.1,13.2,28.1,10.9z M27.2,35.4c0.4-1.2,5.1-14.8,5.3-15.4c0,0,0,0,0,0
		l0.7-1.9l0.7,1.8c0.3,0.8,5.6,18.1,6.3,20.1H29c0-0.1,0-0.2,0-0.3c0-1.6-0.7-3.1-1.8-4.1C27.2,35.4,27.2,35.4,27.2,35.4z M50.1,54
		c0,2.1-1.7,3.7-3.7,3.7c-2.1,0-3.7-1.7-3.7-3.7c0-2.1,1.7-3.7,3.7-3.7C48.4,50.3,50.1,51.9,50.1,54z"/>
</g>
</svg>
