<?xml version="1.0" encoding="utf-8"?>
<!-- Generator: Adobe Illustrator 19.0.0, SVG Export Plug-In . SVG Version: 6.00 Build 0)  -->
<svg version="1.1" id="Layer_1" xmlns="http://www.w3.org/2000/svg" xmlns:xlink="http://www.w3.org/1999/xlink" x="0px" y="0px"
	 width="469px" height="660px" viewBox="0 0 469 660" style="enable-background:new 0 0 469 660;" xml:space="preserve">
<style type="text/css">
	.st0{fill:#FAAD21;}
</style>
<g id="XMLID_20_">
	<path id="XMLID_824_" class="st0" d="M421.1,596.2c1.8-0.6,6.1-1.4,5.4-8.6c0,0-3.8-21.2-3.1-30.1c3.8-7.2,6-15.5,6-24.2
		c0-0.1,0-0.2,0-0.2c0,0,0-0.1,0-0.1c0-0.7,0-1.5-0.1-2.2c-1.2-24.7-19.6-44.9-43.6-48.8c-5.8-14.4-22.5-65.9-22.4-66.3
		c0.6-3.2,2-4,4-4.3h49.1c0.1,0,0.3-0.1,0.3-0.3v-13.6c0-0.1-0.1-0.3-0.3-0.3h-54.8c-4.3-2.7-5.7-7.6-5.8-7.9
		c0,0-59.4-191.2-69.4-225.5c13.8-11.6,22.6-28.9,22.6-48.3c0-31.2-22.7-57.1-52.7-62.4V27.7c0-0.2-0.2-0.4-0.4-0.4h-21.9
		c-0.2,0-0.4,0.2-0.4,0.4V53c-29.9,5.3-52.7,31.2-52.7,62.4c0,20,9.4,37.9,24.1,49.5l-59.5,176.5c-24.7,4.8-43.4,26.5-43.4,52.6
		c0,1,0,2,0.1,3.1H73.6c-0.2,0-0.3,0.1-0.3,0.3v13.6c0,0.1,0.1,0.3,0.3,0.3H105c2.6,7.5,6.7,14.3,12.2,19.9
		c-0.3,0.8-0.6,1.6-0.9,2.3c-1.4,4.4-2.8,8.8-4.1,13.3c-0.8,3-0.5,5.1-0.1,9.1c0.1,1.1,0,2.6,0,3.3v0c0,0.1,0,0.2,0,0.2
		c0,0,0-0.1,0-0.2l-1.5,7.9c2.3,2.3,4.5,4.5,6.9,6.9c-0.3,0.8-0.8,1.9-1.2,3.1c-1.9,6.5-4,12.9-6.1,19.3c-1.8,5.3-3.4,10.8-5.8,15.9
		l-3.5,8.7l9-2.2c3.2-6.4,6.5-12.7,9.6-19.2c2.2-4.5,4.1-9.2,6.3-13.7c0.6-1.2,1.8-2.1,2.6-3.1c1.8,1.4,3.2,2.4,4.8,3.5
		c4.7-11.1,11-20.9,15.1-32c5.9,0,12,0,17.7,0c0.9-2.8,1.5-5.6,2.5-8c3.7-1,7.3-2.4,10.6-4.2c0,0,0,0,0,0
		c12.7-6.2,22.7-17.4,27.3-31h45.1c24.4,0.1,50.6,0.1,60.5,0.1c3.9,0.1,9.2-1,11.2,3l24.1,76.3c-13.4,9.4-22.1,25-22.1,42.6
		c0,28.8,23.3,52.1,52.1,52.1c0.4,0,0.9,0,1.3,0c0.2,0.3,0.3,0.7,0.5,1.1c0,0,7.9,16.5,7.9,16.5c1.3,2.7,8,1.5,8.1,1.5
		c14.3-4.8,26.6,31.5,29.2,33.4c0.9-1.7,1.8-11.1,1.1-14.6c-1.4-7.6-3.3-14.9-6.6-21.8C417.7,598.9,418.6,597,421.1,596.2z
		 M200.5,115.3c0-24.6,19.9-44.5,44.5-44.5s44.5,19.9,44.5,44.5c0,24.6-19.9,44.5-44.5,44.5c-1.6,0-3.1-0.1-4.7-0.2
		C218,157.2,200.5,138.3,200.5,115.3z M191.5,352.7c4.3-12.1,49.5-143.4,51.4-149.4c0,0,0,0,0-0.1l6.5-18.2l6.4,17.1
		c2.6,7.8,54.7,175.8,60.6,194.9H209.2c0.1-1,0.1-2,0.1-3.1c0-15.8-6.9-30.1-17.8-39.9C191.4,353.4,191.4,352.9,191.5,352.7z
		 M413.4,533.2c0,19.9-16.2,36.1-36.1,36.1c-19.9,0-36.1-16.2-36.1-36.1c0-19.9,16.2-36.1,36.1-36.1
		C397.2,497.1,413.4,513.3,413.4,533.2z"/>
</g>
<g id="XMLID_32_">
	<path id="XMLID_33_" class="st0" d="M127.1,541.9l-3.9,9.5h-5l12.8-30.2h5.9l12.9,30.2h-5.2l-4-9.5H127.1z M139.5,538.8l-3.7-8.7
		c-0.8-2-1.4-3.8-2-5.5h-0.1c-0.6,1.8-1.2,3.6-1.9,5.5l-3.7,8.7H139.5z"/>
	<path id="XMLID_36_" class="st0" d="M188.8,550c-2.2,0.6-6.5,1.7-11.6,1.7c-5.7,0-10.4-1.2-14.1-4c-3.3-2.5-5.3-6.5-5.3-11.3
		c0.1-9,7.8-15.6,20.5-15.6c4.4,0,7.8,0.8,9.4,1.4l-1.2,3.2c-2-0.7-4.5-1.3-8.4-1.3c-9.2,0-15.2,4.6-15.2,12.2
		c0,7.7,5.8,12.2,14.6,12.2c3.2,0,5.4-0.4,6.5-0.8v-9h-7.7v-3.1h12.4V550z"/>
	<path id="XMLID_38_" class="st0" d="M201.9,521.2h4.9v27h16.1v3.3h-21V521.2z"/>
	<path id="XMLID_40_" class="st0" d="M240.1,541.9l-3.9,9.5h-5l12.8-30.2h5.9l12.9,30.2h-5.2l-4-9.5H240.1z M252.4,538.8l-3.7-8.7
		c-0.8-2-1.4-3.8-2-5.5h-0.1c-0.6,1.8-1.2,3.6-1.9,5.5l-3.7,8.7H252.4z"/>
	<path id="XMLID_43_" class="st0" d="M273.9,551.4v-30.2h5.3l12.1,15.3c2.8,3.5,5,6.7,6.8,9.8l0.1,0c-0.4-4-0.6-7.7-0.6-12.4v-12.6
		h4.6v30.2h-4.9l-12-15.3c-2.6-3.4-5.2-6.8-7.1-10.1l-0.2,0c0.3,3.8,0.4,7.4,0.4,12.5v12.9H273.9z"/>
</g>
<g id="XMLID_1_">
	<path id="XMLID_2_" class="st0" d="M177.1,565.4l-1.3,3.2h-1.7l4.3-10.2h2l4.3,10.2H183l-1.4-3.2H177.1z M181.3,564.3l-1.2-2.9
		c-0.3-0.7-0.5-1.3-0.7-1.9h0c-0.2,0.6-0.4,1.2-0.6,1.8l-1.2,2.9H181.3z"/>
	<path id="XMLID_6_" class="st0" d="M188.5,558.5c0.8-0.1,2-0.2,3.2-0.2c1.8,0,2.9,0.3,3.7,0.8c0.6,0.5,1,1.1,1,1.9
		c0,1.3-1.1,2.2-2.4,2.6v0c1,0.3,1.6,1,1.9,2.1c0.4,1.4,0.7,2.4,1,2.8h-1.7c-0.2-0.3-0.5-1.2-0.9-2.4c-0.4-1.4-1.1-1.9-2.6-2h-1.6
		v4.4h-1.6V558.5z M190.2,563.1h1.7c1.8,0,2.9-0.8,2.9-1.9c0-1.3-1.2-1.9-2.9-1.9c-0.8,0-1.4,0.1-1.6,0.1V563.1z"/>
	<path id="XMLID_9_" class="st0" d="M209.5,568.2c-0.6,0.2-1.8,0.5-3.4,0.5c-3.6,0-6.3-1.8-6.3-5.2c0-3.2,2.7-5.4,6.7-5.4
		c1.6,0,2.6,0.3,3,0.5l-0.4,1.1c-0.6-0.2-1.5-0.4-2.6-0.4c-3,0-5,1.5-5,4.2c0,2.5,1.8,4.1,4.9,4.1c1,0,2-0.2,2.7-0.4L209.5,568.2z"
		/>
	<path id="XMLID_11_" class="st0" d="M215.1,558.4v4.3h6.2v-4.3h1.7v10.2h-1.7v-4.8h-6.2v4.8h-1.6v-10.2H215.1z"/>
	<path id="XMLID_13_" class="st0" d="M229.4,558.4v10.2h-1.6v-10.2H229.4z"/>
	<path id="XMLID_16_" class="st0" d="M236.5,559.5h-3.9v-1.1h9.4v1.1h-3.9v9.1h-1.7V559.5z"/>
	<path id="XMLID_18_" class="st0" d="M247.1,558.4v10.2h-1.6v-10.2H247.1z"/>
	<path id="XMLID_21_" class="st0" d="M260.7,568.2c-0.6,0.2-1.8,0.5-3.4,0.5c-3.6,0-6.3-1.8-6.3-5.2c0-3.2,2.7-5.4,6.7-5.4
		c1.6,0,2.6,0.3,3,0.5l-0.4,1.1c-0.6-0.2-1.5-0.4-2.6-0.4c-3,0-5,1.5-5,4.2c0,2.5,1.8,4.1,4.9,4.1c1,0,2-0.2,2.7-0.4L260.7,568.2z"
		/>
	<path id="XMLID_23_" class="st0" d="M267.6,559.5h-3.9v-1.1h9.4v1.1h-3.9v9.1h-1.7V559.5z"/>
	<path id="XMLID_25_" class="st0" d="M278.1,558.4v6c0,2.3,1.3,3.3,3,3.3c1.9,0,3.1-1,3.1-3.3v-6h1.7v5.9c0,3.1-2.1,4.4-4.8,4.4
		c-2.6,0-4.6-1.2-4.6-4.4v-6H278.1z"/>
	<path id="XMLID_27_" class="st0" d="M290.6,558.5c0.8-0.1,2-0.2,3.2-0.2c1.8,0,2.9,0.3,3.7,0.8c0.6,0.5,1,1.1,1,1.9
		c0,1.3-1.1,2.2-2.4,2.6v0c1,0.3,1.6,1,1.9,2.1c0.4,1.4,0.7,2.4,1,2.8h-1.7c-0.2-0.3-0.5-1.2-0.9-2.4c-0.4-1.4-1.1-1.9-2.6-2h-1.5
		v4.4h-1.6V558.5z M292.3,563.1h1.7c1.8,0,2.9-0.8,2.9-1.9c0-1.3-1.2-1.9-2.9-1.9c-0.8,0-1.4,0.1-1.6,0.1V563.1z"/>
	<path id="XMLID_30_" class="st0" d="M309.3,563.8h-5v3.7h5.5v1.1h-7.2v-10.2h6.9v1.1h-5.2v3.2h5V563.8z"/>
</g>
</svg>
